<svg xmlns="http://www.w3.org/2000/svg" viewBox="0 0 128 128">
  <defs>
    <linearGradient id="bg" x1="0%" y1="0%" x2="100%" y2="100%">
      <stop offset="0%" style="stop-color:#F59E0B"/>
      <stop offset="100%" style="stop-color:#D97706"/>
    </linearGradient>
  </defs>
  <rect width="128" height="128" rx="28" fill="url(#bg)"/>
  <path d="M98 38c-2 2-6 4-12 6 2 6 2 12 0 18-2 6-6 12-12 18-6 6-14 10-24 12-10 2-20 2-30-2 8 0 14-2 20-6-6 0-10-2-14-6 4 0 8-2 10-4-6-2-10-6-12-10 4 2 8 2 10 2-6-6-8-12-8-20 2 2 6 2 8 2-6-4-8-10-8-18 0-2 0-4 2-6 8 10 18 16 32 18 0-2-2-4-2-6 0-8 6-14 14-14 4 0 8 2 10 4 4-2 8-2 10-4-2 4-2 8-6 10 4 0 8-2 10-2-2 4-4 6-8 8z" fill="#000"/>
</svg>
